<svg width="16" height="16" viewBox="0 0 16 16" fill="none" xmlns="http://www.w3.org/2000/svg">
<path d="M13.8909 2.99459C13.5504 2.65393 13.1461 2.38369 12.7011 2.19932C12.2562 2.01494 11.7792 1.92004 11.2976 1.92004C10.8159 1.92004 10.339 2.01494 9.89399 2.19932C9.44901 2.38369 9.04473 2.65393 8.70422 2.99459L7.99756 3.70126L7.29089 2.99459C6.6031 2.3068 5.67025 1.9204 4.69756 1.9204C3.72487 1.9204 2.79202 2.3068 2.10422 2.99459C1.41643 3.68239 1.03003 4.61524 1.03003 5.58793C1.03003 6.56062 1.41643 7.49347 2.10422 8.18126L2.81089 8.88793L7.99756 14.0746L13.1842 8.88793L13.8909 8.18126C14.2316 7.84076 14.5018 7.43647 14.6862 6.9915C14.8705 6.54653 14.9654 6.06959 14.9654 5.58793C14.9654 5.10627 14.8705 4.62933 14.6862 4.18436C14.5018 3.73938 14.2316 3.3351 13.8909 2.99459Z" fill="#2D3440"/>
</svg>
